<svg width="24" height="24" viewBox="0 0 24 24" fill="none" xmlns="http://www.w3.org/2000/svg">
<path fill-rule="evenodd" clip-rule="evenodd" d="M15.75 2H8.25C4.79875 2 2 4.79875 2 8.25V15.75C2 19.2013 4.79875 22 8.25 22H15.75C19.2013 22 22 19.2013 22 15.75V8.25C22 4.79875 19.2013 2 15.75 2ZM11.994 6.70526C9.07037 6.70526 6.69993 9.0757 6.69993 11.9994C6.69993 14.923 9.07037 17.2935 11.994 17.2935C14.9177 17.2935 17.2882 14.923 17.2882 11.9994C17.2882 9.0757 14.9177 6.70526 11.994 6.70526ZM11.994 15.3082C10.1702 15.3082 8.68522 13.8232 8.68522 11.9994C8.68522 10.1742 10.1702 8.69055 11.994 8.69055C13.8179 8.69055 15.3029 10.1742 15.3029 11.9994C15.3029 13.8232 13.8179 15.3082 11.994 15.3082ZM18.1704 6.412C18.1704 7.06175 17.6437 7.58847 16.9939 7.58847C16.3442 7.58847 15.8175 7.06175 15.8175 6.412C15.8175 5.76225 16.3442 5.23553 16.9939 5.23553C17.6437 5.23553 18.1704 5.76225 18.1704 6.412Z" fill="#AAB9CA"/>
</svg>
