<svg width="51" height="44" viewBox="0 0 51 44" fill="none" xmlns="http://www.w3.org/2000/svg">
<path d="M13.6086 25.4287H15.5401V16.4665H13.6086V25.4287ZM14.5705 15.2913C15.1677 15.2913 15.6487 14.784 15.6487 14.1499C15.6487 13.4988 15.1677 13 14.5705 13C13.9809 13 13.5 13.4988 13.5 14.1499C13.5 14.784 13.9809 15.2913 14.5705 15.2913Z" fill="black"/>
<path d="M22.2886 13.0254C19.0229 13.0254 16.9751 15.4519 16.9751 19.3327C16.9751 23.2135 19.0229 25.6316 22.2886 25.6316C25.5465 25.6316 27.5944 23.2135 27.5944 19.3327C27.5944 15.4519 25.5465 13.0254 22.2886 13.0254ZM22.2886 14.8854C24.2822 14.8854 25.5543 16.6102 25.5543 19.3327C25.5543 22.0467 24.2822 23.7715 22.2886 23.7715C20.2873 23.7715 19.0229 22.0467 19.0229 19.3327C19.0229 16.6102 20.2873 14.8854 22.2886 14.8854Z" fill="black"/>
<path d="M28.7346 21.996C28.82 24.245 30.511 25.6316 33.0863 25.6316C35.7935 25.6316 37.5 24.1773 37.5 21.8607C37.5 20.0429 36.5381 19.0199 34.2654 18.4534L32.9777 18.1321C31.6047 17.777 31.0385 17.3035 31.0385 16.4919C31.0385 15.4773 31.8917 14.8009 33.1561 14.8009C34.436 14.8009 35.3125 15.4857 35.4056 16.6271H37.3138C37.2673 14.4796 35.6383 13.0254 33.1716 13.0254C30.7359 13.0254 29.0061 14.4881 29.0061 16.6525C29.0061 18.3942 29.9835 19.4764 32.0469 19.9922L33.4974 20.3642C34.9092 20.7278 35.4832 21.235 35.4832 22.1144C35.4832 23.1289 34.5446 23.8561 33.1949 23.8561C31.8297 23.8561 30.798 23.1205 30.6739 21.996H28.7346Z" fill="black"/>
<path d="M0.5 32.7647V5.23529C0.5 4.11202 1.02678 3.03476 1.96447 2.24049C2.90215 1.44622 4.17392 1 5.5 1H45.5C46.8261 1 48.0979 1.44622 49.0355 2.24049C49.9732 3.03476 50.5 4.11202 50.5 5.23529V32.7647C50.5 33.888 49.9732 34.9652 49.0355 35.7595C48.0979 36.5538 46.8261 37 45.5 37H5.5C4.17392 37 2.90215 36.5538 1.96447 35.7595C1.02678 34.9652 0.5 33.888 0.5 32.7647Z" stroke="black"/>
<path fill-rule="evenodd" clip-rule="evenodd" d="M21.8333 37H24.5H27.5C27.5 40.84 31.5 42.6 33.5 43H24.5H16.5C18.2778 42.6 21.8333 40.84 21.8333 37Z" fill="black"/>
<path d="M21.8333 37V36.5H21.3333V37H21.8333ZM27.5 37H28V36.5H27.5V37ZM33.5 43V43.5L33.5981 42.5097L33.5 43ZM16.5 43L16.3902 42.5122L16.5 43.5V43ZM24.5 36.5H21.8333V37.5H24.5V36.5ZM24.5 37.5H27.5V36.5H24.5V37.5ZM27 37C27 39.1186 28.1111 40.6511 29.4435 41.685C30.7669 42.712 32.3428 43.2785 33.4019 43.4903L33.5981 42.5097C32.6572 42.3215 31.2331 41.808 30.0565 40.895C28.8889 39.9889 28 38.7214 28 37H27ZM33.5 42.5H24.5V43.5H33.5V42.5ZM16.5 43.5H24.5V42.5H16.5V43.5ZM21.3333 37C21.3333 38.7455 20.5318 40.0165 19.5045 40.9133C18.4661 41.8199 17.2121 42.3273 16.3902 42.5122L16.6098 43.4878C17.5656 43.2727 18.9783 42.7001 20.1622 41.6667C21.357 40.6235 22.3333 39.0945 22.3333 37H21.3333Z" fill="black"/>
</svg>
