<svg width="24" height="24" viewBox="0 0 24 24" fill="none" xmlns="http://www.w3.org/2000/svg">
<path d="M7.39381 4.43847C7.39381 5.6378 6.35426 6.61006 5.07191 6.61006C3.78955 6.61006 2.75 5.6378 2.75 4.43847C2.75 3.23913 3.78955 2.26688 5.07191 2.26688C6.35426 2.26688 7.39381 3.23913 7.39381 4.43847Z" fill="#AAB9CA"/>
<path d="M3.06753 8.20627H7.0366V20.2335H3.06753V8.20627Z" fill="#AAB9CA"/>
<path d="M13.4268 8.20627H9.45773V20.2335H13.4268C13.4268 20.2335 13.4268 16.4472 13.4268 14.0798C13.4268 12.6588 13.912 11.2316 15.8479 11.2316C18.0358 11.2316 18.0226 13.0912 18.0124 14.5318C17.9991 16.4149 18.0309 18.3366 18.0309 20.2335H22V13.8858C21.9664 9.83261 20.9102 7.96498 17.4356 7.96498C15.3721 7.96498 14.093 8.90179 13.4268 9.74934V8.20627Z" fill="#AAB9CA"/>
</svg>
