<svg width="175" height="54" viewBox="0 0 175 54" fill="none" xmlns="http://www.w3.org/2000/svg">
<g clip-path="url(#clip0_17716_20002)">
<path d="M74.8614 34.8908C73.1155 34.8908 71.5359 34.5577 70.1226 33.8499C68.7092 33.1421 67.4622 32.1845 66.4645 31.0188C65.4668 29.8114 64.677 28.4374 64.0951 26.8137C63.5131 25.2316 63.2637 23.4829 63.2637 21.651C63.2637 19.7358 63.5547 17.9455 64.1782 16.2801C64.7602 14.6147 65.5915 13.1992 66.6723 11.9918C67.7531 10.7844 69.0002 9.82678 70.4967 9.11899C71.9932 8.4112 73.6559 8.07812 75.4434 8.07812C77.4387 8.07812 79.1846 8.49447 80.6396 9.3688C82.136 10.2015 83.3 11.4089 84.2145 12.9077V8.57774H91.1565V32.9756C91.1565 34.974 90.7824 36.7643 90.0342 38.3881C89.2859 39.9702 88.2467 41.3441 86.9165 42.4683C85.5863 43.5924 84.0067 44.4251 82.136 45.0496C80.2654 45.6325 78.2285 45.9656 75.9838 45.9656C73.1571 45.9656 70.7461 45.5076 68.7508 44.6333C66.7555 43.7173 65.0096 42.4266 63.5131 40.7196L67.7947 36.3896C68.7508 37.4721 69.9563 38.3464 71.3696 39.0126C72.783 39.6787 74.3211 39.9702 75.9422 39.9702C76.8983 39.9702 77.8129 39.8453 78.6858 39.5538C79.5588 39.304 80.307 38.8877 80.9721 38.3464C81.6372 37.8052 82.1776 37.0974 82.5517 36.1814C82.9259 35.3071 83.1337 34.2246 83.1337 33.0172V30.4775C82.3439 31.9347 81.18 33.0588 79.6835 33.8083C78.187 34.5161 76.5658 34.8908 74.8614 34.8908ZM77.605 28.5207C78.8521 28.5207 79.9329 28.1876 80.889 27.4798C81.8451 26.8137 82.5933 25.9393 83.1337 24.8568V19.4027C82.5933 17.9871 81.8035 16.9046 80.6811 16.072C79.6003 15.2393 78.4364 14.8646 77.1893 14.8646C76.3164 14.8646 75.5266 15.0727 74.8199 15.4474C74.1132 15.8221 73.4897 16.3634 72.9908 16.9879C72.492 17.6541 72.0763 18.4035 71.7853 19.2362C71.4944 20.0689 71.3696 20.9432 71.3696 21.8592C71.3696 22.8168 71.5359 23.7327 71.8269 24.5238C72.1595 25.3565 72.5751 26.0642 73.1571 26.6471C73.7391 27.23 74.3626 27.7296 75.1109 28.0627C75.8591 28.3541 76.6905 28.5207 77.605 28.5207Z" fill="#1E1C1C"/>
<path d="M109.322 35.2646C107.119 35.2646 105.165 34.8899 103.42 34.1821C101.674 33.4743 100.177 32.4751 98.9717 31.2677C97.7662 30.0187 96.8517 28.6031 96.1866 26.9794C95.563 25.3556 95.2305 23.6902 95.2305 21.8999C95.2305 19.9848 95.563 18.1945 96.1866 16.5291C96.8101 14.8637 97.7246 13.3649 98.9301 12.1158C100.136 10.8668 101.591 9.86756 103.336 9.11814C105.082 8.36872 107.078 8.03564 109.281 8.03564C111.526 8.03564 113.479 8.41036 115.225 9.11814C116.971 9.86756 118.426 10.8252 119.632 12.0742C120.837 13.3232 121.752 14.7804 122.334 16.4042C122.957 18.0279 123.248 19.735 123.248 21.5669C123.248 22.0249 123.248 22.4828 123.206 22.9408C123.165 23.3988 123.123 23.7735 123.04 24.1066H103.752C103.877 25.8552 104.542 27.2292 105.664 28.1451C106.828 29.0611 108.117 29.5191 109.572 29.5191C110.736 29.5191 111.858 29.2276 112.939 28.6864C114.02 28.1035 114.726 27.3541 115.101 26.3965L121.876 28.3117C120.837 30.3934 119.257 32.0588 117.096 33.3494C114.934 34.6401 112.357 35.2646 109.322 35.2646ZM114.851 19.1937C114.685 17.5283 114.103 16.196 113.064 15.2384C112.024 14.2808 110.736 13.7812 109.239 13.7812C107.66 13.7812 106.371 14.2808 105.373 15.2384C104.376 16.2376 103.752 17.5283 103.586 19.1521H114.851V19.1937Z" fill="#1E1C1C"/>
<path d="M139.793 35.2649C137.549 35.2649 135.595 34.8901 133.849 34.1824C132.103 33.4329 130.648 32.4753 129.443 31.2263C128.237 29.9773 127.323 28.5201 126.741 26.8963C126.117 25.2309 125.826 23.5239 125.826 21.7336C125.826 19.9433 126.117 18.1947 126.741 16.5709C127.364 14.9056 128.279 13.49 129.443 12.241C130.648 10.9919 132.103 9.99269 133.849 9.24327C135.595 8.49385 137.59 8.11914 139.793 8.11914C142.038 8.11914 143.992 8.49385 145.738 9.24327C147.484 9.99269 148.939 10.9919 150.144 12.241C151.35 13.49 152.264 14.9472 152.888 16.5709C153.511 18.2363 153.844 19.9433 153.844 21.7336C153.844 23.5239 153.553 25.2726 152.929 26.8963C152.306 28.5617 151.391 29.9773 150.227 31.2263C149.022 32.4753 147.567 33.4746 145.821 34.1824C143.992 34.9318 142.038 35.2649 139.793 35.2649ZM133.974 21.692C133.974 23.7737 134.514 25.3975 135.636 26.6465C136.717 27.8955 138.131 28.5201 139.835 28.5201C140.666 28.5201 141.415 28.3535 142.121 28.0204C142.828 27.6874 143.41 27.2294 143.95 26.6049C144.449 26.022 144.865 25.2726 145.156 24.4399C145.447 23.6072 145.613 22.6496 145.613 21.6504C145.613 19.5686 145.073 17.9449 143.95 16.6959C142.869 15.4468 141.456 14.8223 139.793 14.8223C138.962 14.8223 138.172 14.9888 137.466 15.3219C136.759 15.655 136.135 16.113 135.636 16.7375C135.138 17.3204 134.722 18.0698 134.431 18.9025C134.098 19.7768 133.974 20.6928 133.974 21.692Z" fill="#1E1C1C"/>
<path d="M174.337 15.4053C172.424 15.4469 170.679 15.7384 169.099 16.3629C167.519 16.9458 166.397 17.8617 165.69 19.0691V34.807H157.709V8.57723H165.025V13.8648C165.94 12.1162 167.062 10.7006 168.475 9.70137C169.889 8.70214 171.385 8.20252 173.006 8.16089C173.381 8.16089 173.63 8.16089 173.796 8.16089C173.962 8.16089 174.129 8.16089 174.295 8.20252V15.4053H174.337Z" fill="#1E1C1C"/>
<path d="M28.0552 48.7541C40.7969 48.7541 51.1261 38.4087 51.1261 25.647C51.1261 12.8852 40.7969 2.53979 28.0552 2.53979C15.3135 2.53979 4.98438 12.8852 4.98438 25.647C4.98438 38.4087 15.3135 48.7541 28.0552 48.7541Z" fill="#E8EEEF"/>
<path d="M28.0111 0C13.0878 0 0.700194 11.9907 0.658625 26.8959C0.617056 34.3901 3.6516 41.1766 8.55675 46.0478C13.4203 50.9191 20.1545 53.9584 27.5954 53.9584C35.0363 53.9584 41.7705 50.9191 46.634 46.0478C51.4976 41.1766 54.5322 34.4318 54.5322 26.9792V6.16191C54.5737 2.78951 51.7886 0 48.3799 0H28.0111ZM46.2183 26.8959C46.2183 32.017 44.1399 36.68 40.7728 40.0108C37.4057 43.3832 32.7915 45.4649 27.6785 45.4649C22.5655 45.4649 17.9098 43.3832 14.5843 40.0108C11.2587 36.68 9.18029 32.1002 9.13872 27.0208C9.05558 16.7371 17.7435 8.32691 28.0111 8.32691H40.3987L33.3735 15.3631H27.9279C21.6094 15.3631 16.2886 20.3593 16.1639 26.6461C16.0808 29.9352 17.411 32.8913 19.531 35.0563C21.6094 37.138 24.4777 38.4287 27.6785 38.4287C30.339 38.4287 32.8331 37.5127 34.7868 35.9722C36.7406 34.4318 38.1955 32.2668 38.8191 29.8103H29.175L34.7868 24.1897H46.2183V26.8959Z" fill="#023AFF"/>
</g>
<defs>
<clipPath id="clip0_17716_20002">
<rect width="173.676" height="54" fill="white" transform="translate(0.662109)"/>
</clipPath>
</defs>
</svg>
