<svg width="51" height="44" viewBox="0 0 51 44" fill="none" xmlns="http://www.w3.org/2000/svg">
<rect x="26.4082" y="19.9082" width="9.09091" height="9.09091" fill="black"/>
<rect x="15.5" y="19.9082" width="9.09091" height="9.09091" fill="black"/>
<rect x="26.4082" y="9" width="9.09091" height="9.09091" fill="black"/>
<rect x="15.5" y="9" width="9.09091" height="9.09091" fill="black"/>
<path d="M12.9922 43H37.9922" stroke="black" stroke-linecap="round" stroke-linejoin="round"/>
<path d="M0.5 32.7647V5.23529C0.5 4.11202 1.02678 3.03476 1.96447 2.24049C2.90215 1.44622 4.17392 1 5.5 1H45.5C46.8261 1 48.0979 1.44622 49.0355 2.24049C49.9732 3.03476 50.5 4.11202 50.5 5.23529V32.7647C50.5 33.888 49.9732 34.9652 49.0355 35.7595C48.0979 36.5538 46.8261 37 45.5 37H5.5C4.17392 37 2.90215 36.5538 1.96447 35.7595C1.02678 34.9652 0.5 33.888 0.5 32.7647Z" stroke="black"/>
</svg>
